:SAMPLES-PER-SECOND 30
:FULLY-SPECIFIED
:DEGREES
630
root  -53.3497 36.2139 1.09058 -5.36913 -81.719 1.58716
RightUpLeg  -33.9791 -16.0289 -5.274
RightLeg  33.4899 9.61426 6.56539
RightFoot  -2.31753 -0.67709 9.26548
RightToes  2.91037e-010 0 -3.6325e-017
Spine  78.5163 -13.5242 10.0956
Spine1  0.639869 -4.56739 -4.69513
HEad  -43.729 -6.98361 0.354034
LeftShoulder1  1.95947 -11.4368 -5.3107
LeftArm  -41.3278 -55.5053 -28.7625
LeftForeArm  -3.93527 -31.0512 -7.0144
LeftHand  -0.0704523 0.481925 1.58426
RightShoulder  0.946291 6.22216 1.45503
RightArm  -39.7822 55.7474 14.521
RightForeArm  -20.5191 23.2304 5.71389
RightHand  -0.565559 12.9073 -4.01709
LeftUpLeg  -35.5987 4.67797 -5.16011
LeftLeg  35.734 -5.49275 -3.87664
LeftFoot  5.63233 -1.2144 7.89742
LeftToes  -7.53974e-010 3.3384e-011 -1.25048e-011
631
root  -53.8895 35.9733 0.921178 -1.66859 -79.8425 -2.20831
RightUpLeg  -35.34 -17.7159 -4.12025
RightLeg  37.8372 8.94926 7.11861
RightFoot  1.1146 -0.0532471 0.309926
RightToes  2.91037e-010 0 -3.6325e-017
Spine  81.4768 -15.1381 11.8644
Spine1  -0.745375 -4.79792 -3.30075
HEad  -44.6804 -8.38463 1.37549
LeftShoulder1  1.76016 -12.7262 -2.72056
LeftArm  -46.5187 -57.857 -25.5537
LeftForeArm  -3.62156 -28.615 -6.38594
LeftHand  -0.028003 1.71455 0.627672
RightShoulder  0.909247 6.75213 0.489019
RightArm  -42.3747 55.9653 6.31478
RightForeArm  -26.2366 19.5888 3.89587
RightHand  -0.554968 13.9626 -3.74534
LeftUpLeg  -36.6105 2.49134 -4.27634
LeftLeg  39.1496 -4.88326 -3.88081
LeftFoot  3.5943 -1.11615 8.33827
LeftToes  -7.53974e-010 3.3384e-011 -1.25048e-011
632
root  -54.42 35.7222 0.816042 1.02859 -77.4344 -8.1991
RightUpLeg  -32.1759 -19.5236 -4.48475
RightLeg  41.2367 8.30311 7.43894
RightFoot  -0.52277 -0.0910705 0.905824
RightToes  2.91037e-010 0 -3.6325e-017
Spine  87.6937 -19.2693 12.9741
Spine1  -2.96781 -5.44598 -4.98358
HEad  -44.5583 -9.10305 1.7655
LeftShoulder1  1.5685 -13.6184 -0.79905
LeftArm  -51.0674 -59.0692 -20.2461
LeftForeArm  -5.51654 -26.3181 -5.93319
LeftHand  -0.0321445 1.89151 0.742071
RightShoulder  0.83267 7.23648 -0.792033
RightArm  -43.7358 55.6678 2.41107
RightForeArm  -28.2464 17.6752 2.5282
RightHand  -0.30115 13.1157 -2.33247
LeftUpLeg  -34.4782 -0.275676 -2.72325
LeftLeg  43.0402 -4.02899 -3.63562
LeftFoot  0.875209 -0.922734 8.54499
LeftToes  -7.53974e-010 3.3384e-011 -1.25048e-011
633
root  -54.9206 35.2988 0.497165 0.0858765 -76.3655 -7.06799
RightUpLeg  -33.9949 -19.9293 -4.33392
RightLeg  45.67 6.9601 7.21975
RightFoot  -2.2288 0.0316781 -0.590362
RightToes  2.91037e-010 0 -3.6325e-017
Spine  90.7986 -19.8903 12.777
Spine1  -4.55886 -5.54625 -4.44959
HEad  -45.6043 -9.12548 2.24072
LeftShoulder1  1.39114 -14.3084 0.720028
LeftArm  -56.9049 -59.8539 -14.8262
LeftForeArm  -5.99353 -24.8685 -5.62455
LeftHand  -0.0340651 2.24104 0.818231
RightShoulder  0.736317 7.64563 -2.09038
RightArm  -45.4457 55.3821 -2.39408
RightForeArm  -32.6583 15.687 1.26705
RightHand  -0.302578 13.5034 -2.29664
LeftUpLeg  -36.2953 -1.34309 -2.40873
LeftLeg  47.0438 -3.5735 -3.69967
LeftFoot  -1.22332 -0.709159 8.07392
LeftToes  -7.53974e-010 3.3384e-011 -1.25048e-011
634
root  -55.3725 34.7945 0.101778 -1.55782 -75.5251 -3.83405
RightUpLeg  -37.5695 -19.6252 -4.13754
RightLeg  50.2834 5.36137 6.54211
RightFoot  -4.75478 0.0540173 -1.48966
RightToes  2.91037e-010 0 -3.6325e-017
Spine  91.8956 -19.8705 12.1847
Spine1  -4.6155 -6.16721 -4.09019
HEad  -46.6943 -8.78164 3.41803
LeftShoulder1  1.0463 -15.3834 3.31883
LeftArm  -64.9392 -58.8445 -5.97543
LeftForeArm  -8.27117 -23.275 -5.32968
LeftHand  -0.0381557 2.10005 0.966701
RightShoulder  0.535237 8.30949 -4.47743
RightArm  -49.3225 54.8183 -5.17193
RightForeArm  -34.4794 14.082 -0.333597
RightHand  -0.254977 13.174 -2.03183
LeftUpLeg  -39.624 -2.04606 -2.4288
LeftLeg  50.895 -3.43978 -4.08667
LeftFoot  -3.01029 -0.524421 7.43966
LeftToes  -7.53974e-010 3.3384e-011 -1.25048e-011
